<?xml version="1.0" encoding="UTF-8"?>
<svg id="Layer_1" data-name="Layer 1" xmlns="http://www.w3.org/2000/svg" xmlns:xlink="http://www.w3.org/1999/xlink" viewBox="0 0 66.4 60.91">
  <defs>
    <style>
      .cls-1 {
        fill: url(#linear-gradient);
      }

      .cls-1, .cls-2 {
        stroke-width: 0px;
      }

      .cls-2 {
        fill: url(#linear-gradient-2);
      }
    </style>
    <linearGradient id="linear-gradient" x1="23.47" y1="9.12" x2="61.69" y2="43.54" gradientUnits="userSpaceOnUse">
      <stop offset=".14" stop-color="#dcc119"/>
      <stop offset=".28" stop-color="#a7bf2e"/>
      <stop offset=".43" stop-color="#8ab636"/>
      <stop offset=".63" stop-color="#51a73f"/>
      <stop offset=".84" stop-color="#009e43"/>
    </linearGradient>
    <linearGradient id="linear-gradient-2" x1="1.43" y1="15.71" x2="44.84" y2="31.51" gradientUnits="userSpaceOnUse">
      <stop offset=".02" stop-color="#e8d400"/>
      <stop offset=".15" stop-color="#a7bf2e"/>
      <stop offset=".24" stop-color="#8ab636"/>
      <stop offset=".34" stop-color="#6dae3b"/>
      <stop offset=".43" stop-color="#51a73f"/>
      <stop offset=".63" stop-color="#019d43"/>
      <stop offset=".85" stop-color="#009e43"/>
    </linearGradient>
  </defs>
  <path class="cls-1" d="M66.38,23.66c-.07-1.39-.33-2.64-.47-3.39-1.48-9.76-8.87-17.58-18.41-19.7-.04,0-.08-.02-.12-.03-.26-.06-.53-.11-.8-.16-.17-.03-.34-.06-.52-.09-.16-.02-.31-.04-.47-.07-.26-.04-.52-.07-.78-.1-.11-.01-.22-.02-.32-.03-.3-.03-.59-.05-.89-.07-.15,0-.29,0-.44-.01-.25,0-.5-.02-.75-.02-.03,0-.07,0-.1,0-13.08,0-23.69,10.52-23.86,23.55h.07c-.13,9.63,5.44,17.97,13.55,21.86,0,0,0,0,0,0,.08.04.2.09.35.16.22.1.53.21.75.3.56.22,1.27.49,1.72.63s1.72.54,3.1,1.11,6.08,2.49,6.39,7.14c.24,3.7-.96,5.29-1.56,5.85-.12.11-.04.31.12.31.87,0,2.23-.59,3.27-1.36,1.24-.92,4.41-3.7,5.6-5.02s6.52-7.55,8.38-10.3c1.87-2.75,3.52-6.04,4.68-9.38.59-1.71,1.33-5.03,1.44-7.14.1-.87.12-3.16.08-4.06Z"/>
  <path class="cls-2" d="M18.5,23.57l29.24-.02c-.17-13.04-10.79-23.55-23.86-23.55S0,10.69,0,23.87s10.69,23.87,23.87,23.87c3.3,0,6.43-.67,9.29-1.88-14.68-6.8-14.67-20.52-14.67-22.3Z"/>
</svg>