<?xml version="1.0" encoding="UTF-8"?>
<svg id="Layer_1" data-name="Layer 1" xmlns="http://www.w3.org/2000/svg" xmlns:xlink="http://www.w3.org/1999/xlink" viewBox="0 0 68.06 62.43">
  <defs>
    <style>
      .cls-1 {
        fill: url(#linear-gradient);
      }

      .cls-1, .cls-2 {
        stroke-width: 0px;
      }

      .cls-2 {
        fill: url(#linear-gradient-2);
      }
    </style>
    <linearGradient id="linear-gradient" x1="24.05" y1="9.35" x2="63.24" y2="44.63" gradientUnits="userSpaceOnUse">
      <stop offset=".14" stop-color="#dcc119"/>
      <stop offset=".28" stop-color="#a7bf2e"/>
      <stop offset=".43" stop-color="#8ab636"/>
      <stop offset=".63" stop-color="#51a73f"/>
      <stop offset=".84" stop-color="#009e43"/>
    </linearGradient>
    <linearGradient id="linear-gradient-2" x1="1.47" y1="16.1" x2="45.96" y2="32.29" gradientUnits="userSpaceOnUse">
      <stop offset=".02" stop-color="#e8d400"/>
      <stop offset=".15" stop-color="#a7bf2e"/>
      <stop offset=".24" stop-color="#8ab636"/>
      <stop offset=".34" stop-color="#6dae3b"/>
      <stop offset=".43" stop-color="#51a73f"/>
      <stop offset=".63" stop-color="#019d43"/>
      <stop offset=".85" stop-color="#009e43"/>
    </linearGradient>
  </defs>
  <path class="cls-1" d="M68.03,24.25c-.07-1.42-.34-2.71-.48-3.47-1.51-10.01-9.09-18.02-18.87-20.19-.04,0-.08-.02-.12-.03-.27-.06-.54-.11-.82-.16-.18-.03-.35-.07-.53-.1-.16-.03-.32-.05-.48-.07-.27-.04-.53-.07-.8-.1-.11-.01-.22-.02-.33-.03-.3-.03-.61-.05-.91-.07-.15,0-.3,0-.45-.01-.25,0-.51-.02-.77-.02-.04,0-.07,0-.11,0-13.4,0-24.28,10.78-24.46,24.14h.07c-.13,9.87,5.58,18.42,13.89,22.41,0,0,0,0,0,0,.08.04.21.1.36.16.22.1.54.21.77.31.57.23,1.3.5,1.76.65s1.76.55,3.18,1.14,6.23,2.56,6.55,7.32c.25,3.79-.98,5.42-1.6,5.99-.12.11-.04.32.12.32.9,0,2.29-.6,3.35-1.4,1.27-.95,4.52-3.79,5.74-5.14s6.68-7.74,8.59-10.55c1.91-2.81,3.61-6.19,4.79-9.61.61-1.75,1.36-5.15,1.47-7.32.1-.89.13-3.24.08-4.16Z"/>
  <path class="cls-2" d="M18.96,24.16l29.97-.02c-.18-13.36-11.06-24.14-24.46-24.14S0,10.96,0,24.47s10.96,24.47,24.47,24.47c3.38,0,6.6-.68,9.52-1.92-15.05-6.97-15.03-21.03-15.03-22.85Z"/>
</svg>