<svg id="Layer_1" data-name="Layer 1" xmlns="http://www.w3.org/2000/svg" xmlns:xlink="http://www.w3.org/1999/xlink" viewBox="0 0 130.4 108"><defs><style>.cls-1{fill:url(#linear-gradient);}.cls-2{fill:url(#New_Gradient_Swatch_copy);}</style><linearGradient id="linear-gradient" x1="47.5" y1="25.54" x2="97.71" y2="71.09" gradientUnits="userSpaceOnUse"><stop offset="0.1" stop-color="#dcc119"/><stop offset="0.25" stop-color="#a7bf2e"/><stop offset="0.38" stop-color="#8ab636"/><stop offset="0.57" stop-color="#51a73f"/><stop offset="0.82" stop-color="#009e43"/></linearGradient><linearGradient id="New_Gradient_Swatch_copy" x1="34.66" y1="41.79" x2="74.64" y2="52.25" gradientUnits="userSpaceOnUse"><stop offset="0" stop-color="#a7bf2e"/><stop offset="0.12" stop-color="#8ab636"/><stop offset="0.28" stop-color="#78b039"/><stop offset="0.43" stop-color="#51a73f"/><stop offset="0.6" stop-color="#119e43"/><stop offset="0.74" stop-color="#019d43"/><stop offset="0.87" stop-color="#009e43"/></linearGradient></defs><title>GreenwayDesign_logo_RGB</title><path class="cls-1" d="M97.8,42.3A24.9,24.9,0,0,0,81,23.9h-.3l-1.2-.3-1.2-.3h-.7l-1.7-.3H67.7l-.9.3h-.2A24.7,24.7,0,0,0,48.8,47.5a24.5,24.5,0,0,0,6.6,16.7l1.4,1.4a22.2,22.2,0,0,0,4.1,2.7l.3.2,3.3,1.6,3.7,1.1a3.1,3.1,0,0,1,1,.5,17.7,17.7,0,0,1,3,1.6c7.6,4.8,2.5,12.1,2.5,12.1s2.5,2.4,16.3-15C101.5,57.1,99,46.7,97.8,42.3Z"/><path class="cls-2" d="M49,47.3H80.1A24.7,24.7,0,0,0,64.5,24.4a24,24,0,0,0-9-1.7,24.6,24.6,0,0,0,0,49.1,24,24,0,0,0,9-1.7A24.6,24.6,0,0,1,49,47.3Z"/></svg>